<?xml version="1.0" standalone="no"?>
<!DOCTYPE svg PUBLIC "-//W3C//DTD SVG 20010904//EN"
 "http://www.w3.org/TR/2001/REC-SVG-20010904/DTD/svg10.dtd">
<svg version="1.0" xmlns="http://www.w3.org/2000/svg"
 width="960.000000pt" height="720.000000pt" viewBox="0 0 960.000000 720.000000"
 preserveAspectRatio="xMidYMid meet">
<metadata>
Created by potrace 1.16, written by Peter Selinger 2001-2019
</metadata>
<g transform="translate(0.000000,720.000000) scale(0.100000,-0.100000)"
fill="#000000" stroke="none">
<path d="M4947 5583 c-4 -3 -7 -57 -7 -120 0 -106 1 -113 20 -113 19 0 20 7
20 105 l0 105 265 0 265 0 0 -110 c0 -104 -1 -110 -20 -110 -46 0 -112 -46
-138 -95 -58 -113 -9 -251 103 -289 l40 -14 0 -59 0 -58 -112 -3 -113 -3 0
216 c0 321 16 305 -315 305 -206 0 -244 -2 -264 -16 -48 -34 -51 -60 -51 -399
l0 -315 -229 0 c-199 0 -230 -2 -235 -16 -3 -9 -6 -81 -6 -160 l0 -144 -648 0
-648 0 -48 638 c-26 350 -51 640 -55 645 -4 4 -135 6 -292 5 l-284 -3 -47
-610 c-26 -335 -47 -624 -47 -642 l-1 -32 -67 -3 -68 -3 -3 -857 -2 -858 -205
0 -205 0 0 -30 0 -30 2265 0 2265 0 0 30 0 30 -211 0 -211 0 26 30 c38 46 51
104 36 168 -18 80 -74 135 -155 152 -30 6 -30 6 -35 85 l-5 80 -127 3 -128 3
0 849 0 850 130 0 130 0 0 74 0 74 47 11 c62 16 126 79 143 141 9 35 9 57 0
98 -18 80 -65 125 -162 156 -16 5 -18 20 -18 126 l0 120 -293 0 c-162 0 -297
-3 -300 -7z m-305 -2000 c2 -538 7 -986 12 -995 7 -16 3 -18 -28 -18 l-36 0
-2 858 -3 857 -177 3 -178 2 0 135 0 135 205 0 205 0 2 -977z m-1862 277 l0
-200 -320 0 -320 0 0 200 0 200 320 0 320 0 0 -200z m830 0 l0 -200 -315 0
-315 0 0 200 0 200 315 0 315 0 0 -200z m850 0 l0 -200 -320 0 -320 0 0 200 0
200 320 0 320 0 0 -200z m1040 -874 c0 -61 -1 -64 -27 -69 -67 -13 -126 -78
-144 -155 -11 -49 7 -125 38 -162 l25 -30 -71 0 -71 0 10 26 c6 14 10 122 10
240 l0 214 115 0 115 0 0 -64z"/>
</g>
</svg>
